<svg width="736" height="364" viewBox="0 0 736 364" fill="none" xmlns="http://www.w3.org/2000/svg">
<path d="M16.0024 221.895C115.625 205.293 208.894 196.633 306.014 93.4933" stroke="#8B7AB8" stroke-width="32" stroke-linecap="round" stroke-linejoin="round"/>
<path d="M366.414 42.6833C469.834 -18.3067 620.51 84.9333 604.878 205.291C588.424 331.975 411.458 355.815 320.4 345.871C229.34 335.925 186.068 315.565 145.299 248.391" stroke="#8B7AB8" stroke-width="32" stroke-linecap="round" stroke-linejoin="round"/>
<path d="M23.7524 267.279C152.155 249.569 257.592 210.871 348.08 120.059" stroke="#8B7AB8" stroke-width="32" stroke-linecap="round" stroke-linejoin="round"/>
<path d="M411.424 78.8613C469.268 55.4353 612.934 167.991 534.648 233.419C439.88 312.625 260.632 308.235 206.392 237.391" stroke="#8B7AB8" stroke-width="32" stroke-linecap="round" stroke-linejoin="round"/>
<path d="M127.885 160.531C132.666 48.7493 262.568 -9.64077 333.058 26.8512C400.836 61.9432 459.354 141.393 547.784 177.693" stroke="#8B7AB8" stroke-width="32" stroke-linecap="round" stroke-linejoin="round"/>
<path d="M607.768 192.619C662.566 203.763 694.51 206.577 719.998 195.723" stroke="#8B7AB8" stroke-width="32" stroke-linecap="round" stroke-linejoin="round"/>
<path d="M176.19 151.451C233.1 21.3692 330.952 81.8133 365.544 109.355C400.138 136.897 485.578 212.241 532.406 221.609" stroke="#8B7AB8" stroke-width="32" stroke-linecap="round" stroke-linejoin="round"/>
<path d="M598.096 239.879C625.596 249.385 682.66 255.075 720.002 242.867" stroke="#8B7AB8" stroke-width="32" stroke-linecap="round" stroke-linejoin="round"/>
</svg>
